<svg id="svg" version="1.1" width="400" height="400" viewBox="0, 0, 400,400" xmlns="http://www.w3.org/2000/svg">
  <g id="svgg" style="" transform="matrix(2.058318, 0, 0, 2.058318, -220.748279, -141.042711)">
    <path id="path0" d="M 195.506 71.067 C 115.226 81.44 81.625 176.191 138.026 233.155 C 194.788 290.484 292.051 255.924 299.89 175.64 C 305.667 116.48 252.93 63.648 195.506 71.067 M 220.178 100.792 C 266.056 111.011 292.206 163.973 271.564 204.864 C 267.06 213.787 262.887 216.372 252.989 216.372 C 248.117 216.372 247.232 216.547 246.17 217.72 C 235.627 229.371 208.538 236.007 191.011 231.234 C 155.165 221.471 136.914 181.832 153.562 149.899 C 157.79 141.788 150.015 137.495 145.417 145.402 C 137.413 159.167 136.632 181.401 143.584 197.587 C 146.824 205.129 144.208 207.88 139.579 201.8 C 128.46 187.193 131.582 150.282 145.535 131.411 C 159.358 112.714 175.194 103.151 198.716 99.296 C 202.508 98.674 214.389 99.503 220.178 100.792 M 193.579 106.323 C 172.779 110.948 150.147 127.331 156.551 133.127 C 158.806 135.168 160.833 134.443 167.071 129.365 C 193.228 108.075 231.609 111.311 249.353 136.304 C 264.645 157.844 268.073 179.027 259.371 198.218 C 255.176 207.47 261.905 210.614 266.485 201.541 C 289.843 155.269 243.815 95.155 193.579 106.323 M 139.035 113.162 C 139.65 115.19 142.246 117.681 144.069 118.139 C 146.277 118.693 145.629 118.74 142.521 120.184 C 140.474 121.135 140.147 122.264 139.687 123.829 C 139.017 126.105 137.312 126.274 136.6 124.5 C 135.073 120.694 135.23 120.143 132.556 119.696 C 130.519 119.355 129.383 118.138 131.043 118.138 C 133.093 118.138 136.137 115.924 136.868 113.9 C 137.787 111.359 138.059 110.269 138.671 112.289 M 195.506 122.254 C 179.851 125.852 165.518 137.826 162.042 150.211 C 161.493 152.169 160.24 154.928 159.259 156.34 C 148.833 171.352 152.8 194.74 168.54 211.049 C 174.112 216.823 175.993 217.587 178.491 215.088 C 180.632 212.948 180.075 211.362 175.7 207.142 C 161.535 193.476 157.864 171.869 167.889 161.156 C 169.049 159.915 170.49 157.326 171.103 155.377 C 180.981 124.01 228.779 123.339 240.225 154.408 C 241.083 156.738 242.817 159.562 244.601 161.538 C 253.874 171.802 250.532 192.33 237.407 205.729 C 233.23 209.993 232.424 211.158 232.424 212.93 C 232.424 221.576 245.912 211.758 252.523 198.298 C 259.989 183.098 259.815 165.784 252.081 154.45 C 250.862 152.665 249.527 149.922 249.113 148.356 C 244.698 131.633 215.839 117.58 195.506 122.254 M 197.82 138.416 C 182.293 142.591 172.426 160.71 179.144 172.709 C 183.257 180.055 191.512 177.24 188.23 169.611 C 183.563 158.763 194.617 145.916 207.462 147.258 C 219.214 148.487 228.028 160.671 223.856 169.922 C 222.13 173.749 223.568 176.565 227.247 176.565 C 232.048 176.565 234.712 171.105 234.207 162.302 C 233.258 145.761 215.022 133.79 197.82 138.416 M 201.216 168.764 C 196.481 170.982 195.704 173.684 195.945 187.082 C 196.17 199.546 196.388 200.247 201.022 203.428 C 205.274 206.346 212.311 204.339 214.91 199.468 C 216.661 196.184 216.552 175.81 214.767 172.78 C 211.996 168.075 206.293 166.385 201.216 168.764 M 124.674 170.463 C 125.505 172.287 123.994 174.639 121.99 174.639 C 121.394 174.639 120.381 174.06 119.741 173.352 C 118.011 171.441 119.304 168.86 121.99 168.86 C 123.45 168.86 124.129 169.265 124.674 170.463 M 290.966 170.463 C 291.572 171.792 291.493 172.29 290.506 173.38 C 288.26 175.862 284.535 173.451 285.755 170.305 C 286.578 168.183 289.974 168.286 290.966 170.463 M 169.923 171.319 C 165.085 176.665 172.045 196.305 177.916 193.873 C 181.14 192.537 181.115 190.301 177.82 185.146 C 176.81 183.567 176.525 181.998 176.498 177.872 C 176.452 170.872 173.232 167.662 169.923 171.319 M 236.634 171.571 C 235.95 172.547 235.634 174.484 235.634 177.697 C 235.634 182.264 234.233 186.683 232.433 187.795 C 230.375 189.067 232.583 194.543 235.154 194.543 C 240.673 194.543 246.345 174.418 241.771 171.06 C 239.951 169.723 237.776 169.94 236.634 171.571 M 186.198 188.441 C 184.667 190.285 185.634 200.855 187.648 204.291 C 189.97 208.253 195.339 212.969 198.617 213.926 C 201.887 214.881 202.225 215.334 202.237 218.78 L 202.247 221.509 L 199.404 221.509 C 195.438 221.509 193.671 223.281 195.349 225.577 C 196.063 226.553 197.332 226.659 206.424 226.502 L 216.693 226.324 L 216.905 224.468 C 217.166 222.184 216.231 221.531 212.681 221.519 L 209.952 221.509 L 209.952 218.111 L 209.952 214.713 L 212.683 213.982 C 220.978 211.763 226.645 203.357 226.645 193.27 C 226.645 188.77 226.002 187.48 223.756 187.48 C 221.479 187.48 220.867 188.763 220.861 193.547 C 220.846 203.858 213.863 210.734 204.4 209.757 C 196.115 208.902 191.332 203.08 191.332 193.85 C 191.332 187.95 188.81 185.293 186.198 188.441" stroke="none" fill="#000000" fill-rule="evenodd"/>
  </g>
</svg>